<?xml version="1.0" encoding="UTF-8" standalone="no"?>
<!-- Created with Inkscape (http://www.inkscape.org/) -->

<svg
   width="210mm"
   height="297mm"
   viewBox="0 0 210 297"
   version="1.1"
   id="svg5"
   inkscape:version="1.1.2 (0a00cf5339, 2022-02-04, custom)"
   sodipodi:docname="Wireframe.svg"
   xmlns:inkscape="http://www.inkscape.org/namespaces/inkscape"
   xmlns:sodipodi="http://sodipodi.sourceforge.net/DTD/sodipodi-0.dtd"
   xmlns="http://www.w3.org/2000/svg"
   xmlns:svg="http://www.w3.org/2000/svg">
  <sodipodi:namedview
     id="namedview7"
     pagecolor="#ffffff"
     bordercolor="#666666"
     borderopacity="1.0"
     inkscape:pageshadow="2"
     inkscape:pageopacity="0.0"
     inkscape:pagecheckerboard="0"
     inkscape:document-units="mm"
     showgrid="false"
     inkscape:zoom="1.1545455"
     inkscape:cx="426.5748"
     inkscape:cy="294.05512"
     inkscape:window-width="1920"
     inkscape:window-height="1016"
     inkscape:window-x="0"
     inkscape:window-y="0"
     inkscape:window-maximized="1"
     inkscape:current-layer="layer1" />
  <defs
     id="defs2" />
  <g
     inkscape:label="Ebene 1"
     inkscape:groupmode="layer"
     id="layer1">
    <rect
       style="fill:#4d4d4d;stroke-width:0.264583"
       id="rect31"
       width="113.14597"
       height="65.1399"
       x="8.5687056"
       y="21.848511" />
    <rect
       style="fill:#4d4d4d;stroke-width:0.264583"
       id="rect33"
       width="52.309269"
       height="90.787148"
       x="138.95038"
       y="21.889349" />
    <rect
       style="fill:#008000;stroke-width:0.264582"
       id="rect159"
       width="79.493408"
       height="62.412937"
       x="41.080891"
       y="22.927788" />
    <rect
       style="fill:#ff6600;stroke-width:0.264583"
       id="rect263"
       width="30.542017"
       height="7.4168096"
       x="9.4293718"
       y="77.575829" />
    <text
       xml:space="preserve"
       style="font-size:6.51927px;line-height:1.25;font-family:sans-serif;stroke-width:0.264583"
       x="13.029752"
       y="85.465836"
       id="text6595"
       transform="scale(1.0220332,0.97844182)"><tspan
         sodipodi:role="line"
         id="tspan6593"
         style="fill:#ffffff;stroke-width:0.264583"
         x="13.029752"
         y="85.465836">Kaufen</tspan></text>
    <rect
       style="fill:#ffffff;stroke-width:0.264582"
       id="rect14111"
       width="30.318521"
       height="4.0966268"
       x="9.7040358"
       y="23.456955" />
    <text
       xml:space="preserve"
       style="font-size:4.30693px;line-height:1.25;font-family:sans-serif;stroke-width:0.264583"
       x="9.2622757"
       y="29.985163"
       id="text22759"
       transform="scale(1.1205053,0.89245449)"><tspan
         sodipodi:role="line"
         id="tspan22757"
         style="stroke-width:0.264583"
         x="9.2622757"
         y="29.985163">Suchen|</tspan></text>
    <rect
       style="fill:#b3b3b3;stroke-width:0.264583"
       id="rect31415"
       width="25.561199"
       height="7.7279444"
       x="10.034847"
       y="30.000069" />
    <rect
       style="fill:#b3b3b3;stroke-width:0.264583"
       id="rect31439"
       width="0.12968254"
       height="4.8380127"
       x="16.943941"
       y="32.257881" />
    <rect
       style="fill:#ffffff;stroke-width:0.264583"
       id="rect31543"
       width="2.4205132"
       height="46.500092"
       x="37.323776"
       y="29.07724" />
    <rect
       style="fill:#1a1a1a;stroke-width:0.264583"
       id="rect31691"
       width="2.4205132"
       height="9.0326214"
       x="37.323776"
       y="29.07724" />
    <rect
       style="fill:#e6e6e6;stroke-width:0.264583"
       id="rect31845"
       width="25.561199"
       height="7.7279444"
       x="10.034847"
       y="38.786346" />
    <rect
       style="fill:#b3b3b3;stroke-width:0.264583"
       id="rect31847"
       width="25.561199"
       height="7.7279444"
       x="10.034847"
       y="47.572624" />
    <rect
       style="fill:#b3b3b3;stroke-width:0.264583"
       id="rect31849"
       width="25.561199"
       height="7.7279444"
       x="10.034847"
       y="56.568466" />
    <rect
       style="fill:#b3b3b3;stroke-width:0.264583"
       id="rect31851"
       width="25.561199"
       height="7.7279444"
       x="10.034847"
       y="65.564308" />
    <ellipse
       style="fill:#ff0000;stroke-width:0.264583"
       id="path31893"
       cx="63.920731"
       cy="52.251057"
       rx="1.3970438"
       ry="1.6964544" />
    <rect
       style="fill:#fff6d5;stroke-width:0.264583"
       id="rect31939"
       width="0.82642108"
       height="5.4577236"
       x="94.504135"
       y="32.194855" />
    <path
       style="fill:none;stroke:#000000;stroke-width:0.264583px;stroke-linecap:butt;stroke-linejoin:miter;stroke-opacity:1"
       d="m 64.932649,52.756847 c 3.823367,-3.823388 -0.440481,-0.01206 2.260209,-1.564968 0.287594,-0.165367 0.433363,-0.511524 0.703751,-0.703739 0.710727,-0.505237 1.592578,-0.720484 2.339841,-1.169926 1.424588,-0.856822 2.693849,-2.038853 4.188489,-2.786163 0.889584,-0.444789 1.708954,-0.6218 2.631821,-0.974993 1.143526,-0.437644 2.236382,-1.452451 3.482525,-1.871744 0.650637,-0.218919 1.477084,-0.40096 2.078177,-0.701508 1.147766,-0.573882 2.482858,-1.671725 3.66327,-2.066843 0.473052,-0.158343 0.515123,0.08332 1.140098,-0.229167 0.674806,-0.337401 1.654566,-1.168558 2.285973,-1.601319 0.129575,-0.08881 0.43207,-0.118155 0.590569,-0.1734 0.468185,-0.163189 0.526674,-0.464357 0.904793,-0.683276 0.164523,-0.09526 0.522253,0.05305 0.703585,0 0.759286,-0.222146 -0.102118,-0.05041 0.521428,-0.369046 0.619582,-0.316605 1.386562,-0.121716 2.076955,-0.208176"
       id="path32316" />
    <rect
       style="fill:#ffffff;stroke-width:0.264581"
       id="rect32398"
       width="46.102684"
       height="7.5272913"
       x="141.98201"
       y="24.535185" />
    <text
       xml:space="preserve"
       style="font-size:7.19918px;line-height:1.25;font-family:sans-serif;stroke-width:0.264583"
       x="140.29488"
       y="31.196787"
       id="text32402"
       transform="scale(1.0193348,0.98103195)"><tspan
         sodipodi:role="line"
         id="tspan32400"
         style="stroke-width:0.264583"
         x="140.29488"
         y="31.196787">Suchen|</tspan></text>
    <rect
       style="fill:#008000;stroke-width:0.264582"
       id="rect32410"
       width="46.645943"
       height="41.677567"
       x="141.56664"
       y="34.465954" />
    <ellipse
       style="fill:#ff0000;stroke-width:0.264583"
       id="ellipse32404"
       cx="149.04677"
       cy="62.720871"
       rx="1.3970438"
       ry="1.6964544" />
    <rect
       style="fill:#fff6d5;stroke-width:0.264583"
       id="rect32406"
       width="0.82642108"
       height="5.4577236"
       x="179.63017"
       y="42.664669" />
    <path
       style="fill:none;stroke:#000000;stroke-width:0.264583px;stroke-linecap:butt;stroke-linejoin:miter;stroke-opacity:1"
       d="m 150.05868,63.226661 c 3.82337,-3.823388 -0.44048,-0.01206 2.26021,-1.564968 0.28759,-0.165367 0.43336,-0.511524 0.70375,-0.703739 0.71073,-0.505237 1.59258,-0.720484 2.33984,-1.169926 1.42459,-0.856822 2.69385,-2.038853 4.18849,-2.786163 0.88958,-0.444789 1.70895,-0.6218 2.63182,-0.974993 1.14353,-0.437644 2.23638,-1.452451 3.48253,-1.871744 0.65063,-0.218919 1.47708,-0.40096 2.07817,-0.701508 1.14777,-0.573882 2.48286,-1.671725 3.66327,-2.066843 0.47306,-0.158343 0.51513,0.08332 1.1401,-0.229167 0.67481,-0.337401 1.65457,-1.168558 2.28597,-1.601319 0.12958,-0.08881 0.43207,-0.118155 0.59057,-0.1734 0.46819,-0.163189 0.52668,-0.464357 0.9048,-0.683276 0.16452,-0.09526 0.52225,0.05305 0.70358,0 0.75929,-0.222146 -0.10212,-0.05041 0.52143,-0.369046 0.61958,-0.316605 1.38656,-0.121716 2.07695,-0.208176"
       id="path32408" />
    <rect
       style="fill:#ff6600;stroke-width:0.264583"
       id="rect32412"
       width="49.61684"
       height="8.9114513"
       x="140.24126"
       y="101.78379" />
    <text
       xml:space="preserve"
       style="font-size:6.7757px;line-height:1.25;font-family:sans-serif;stroke-width:0.264583"
       x="140.64447"
       y="118.31181"
       id="text32416"
       transform="scale(1.0891591,0.9181395)"><tspan
         sodipodi:role="line"
         id="tspan32414"
         style="fill:#ffffff;stroke-width:0.264583"
         x="140.64447"
         y="118.31181">Kaufen</tspan></text>
    <rect
       style="fill:#b3b3b3;stroke-width:0.264583"
       id="rect32418"
       width="46.639103"
       height="7.0964403"
       x="141.56664"
       y="77.201859" />
    <rect
       style="fill:#e6e6e6;stroke-width:0.264583"
       id="rect32420"
       width="46.639103"
       height="7.0964403"
       x="141.56664"
       y="85.270149" />
    <rect
       style="fill:#b3b3b3;stroke-width:0.264583"
       id="rect32422"
       width="46.639103"
       height="7.0964403"
       x="141.56664"
       y="93.33844" />
    <rect
       style="fill:#ffffff;stroke-width:0.264583"
       id="rect32446"
       width="3.7554812"
       height="3.6954854"
       x="94.504128"
       y="37.65258" />
    <rect
       style="fill:#ffffff;stroke-width:0.264583"
       id="rect32448"
       width="3.2794368"
       height="3.8930435"
       x="180.45659"
       y="48.122391" />
    <rect
       style="fill:#b3b3b3;stroke-width:0.264583"
       id="rect32450"
       width="3.486819"
       height="3.1488869"
       x="80.802704"
       y="59.134457" />
    <rect
       style="fill:#b3b3b3;stroke-width:0.264583"
       id="rect32474"
       width="3.486819"
       height="3.1488869"
       x="64.948257"
       y="35.61422" />
    <rect
       style="fill:#b3b3b3;stroke-width:0.264583"
       id="rect32556"
       width="3.486819"
       height="3.1488869"
       x="106.36511"
       y="62.5541" />
    <rect
       style="fill:#b3b3b3;stroke-width:0.264583"
       id="rect32558"
       width="3.486819"
       height="3.1488869"
       x="150.78703"
       y="46.294022" />
    <rect
       style="fill:#b3b3b3;stroke-width:0.264583"
       id="rect32560"
       width="3.486819"
       height="3.1488869"
       x="162.55479"
       y="65.490608" />
    <rect
       style="fill:#b3b3b3;stroke-width:0.264583"
       id="rect32562"
       width="3.486819"
       height="3.1488869"
       x="179.15315"
       y="62.207527" />
  </g>
</svg>
